<mxfile host="app.diagrams.net" agent="Mozilla/5.0 (Windows NT 10.0; Win64; x64) AppleWebKit/537.36 (KHTML, like Gecko) Chrome/136.0.0.0 Safari/537.36" version="27.0.5">
  <diagram name="PÃ¡gina-1" id="2Lf3qd-AaxxHBhe6oHGK">
    <mxGraphModel dx="815" dy="449" grid="1" gridSize="10" guides="1" tooltips="1" connect="1" arrows="1" fold="1" page="1" pageScale="1" pageWidth="827" pageHeight="1169" math="0" shadow="0">
      <root>
        <mxCell id="0" />
        <mxCell id="1" parent="0" />
        <mxCell id="3QrkFWoZS2jebAiSfXui-15" value="" style="rounded=0;whiteSpace=wrap;html=1;" vertex="1" parent="1">
          <mxGeometry x="1011.22" y="210" width="210" height="220" as="geometry" />
        </mxCell>
        <mxCell id="3QrkFWoZS2jebAiSfXui-8" value="" style="rounded=0;whiteSpace=wrap;html=1;" vertex="1" parent="1">
          <mxGeometry x="354" y="250" width="466" height="130" as="geometry" />
        </mxCell>
        <mxCell id="3QrkFWoZS2jebAiSfXui-5" style="edgeStyle=orthogonalEdgeStyle;rounded=0;orthogonalLoop=1;jettySize=auto;html=1;" edge="1" parent="1" source="3QrkFWoZS2jebAiSfXui-1" target="3QrkFWoZS2jebAiSfXui-4">
          <mxGeometry relative="1" as="geometry" />
        </mxCell>
        <mxCell id="3QrkFWoZS2jebAiSfXui-1" value="" style="shape=image;verticalLabelPosition=bottom;labelBackgroundColor=default;verticalAlign=top;aspect=fixed;imageAspect=0;image=data:image/png,iVBORw0KGgoAAAANSUhEUgAAAfsAAABjCAMAAACrF1l6AAABcVBMVEX///8AIkQAIEMAADMAAC0AGj8AADUAADEAIUT29/lLWnAAHUEADDkAGD4AAC8AHkEAEjvr7vCTnanEytAAGELl5+nd4ufT1NkAFDzu8fMADzoAACvS2N6hqbQMLk+Ejpx8hpMAOG8Ab9oAZ8sAQoNTY3e/xcwvQl0AYL01jeIAVqoAMWKBuO0AADgAU6M5j+IAS5RImOSNv+5xfY06TGQeNlQMdtwAW7NnqukAPXnK4fcbf95Tn+ZureoARomfyfGx0/MAK1ZlcoMAVLQAatno8vza6fkkg9+mzfK/2/UALnQAACKbpK8AXcEASZ4APYu/zd8AKWQAABkAABAAQJUAKFiNpMGat96LqttNe7cnZK+cr8kzYJpphaoAMH0WaL83echQh89qltlLa5Z/kqsAJGYTP3AASKo1UHQAH1gABkpbc5I1Xo1JX4MOTYxxlsphhrUVV55Ga5uGmrZDdrt+n8oAMoetvM4AE1dAYIkADVTlFgJdAAAcEklEQVR4nO1d+V/bxra3ZFuWsGy8YOMVE4JNKLgEMISwBNtgs4Sw3IbQrDfpbdLSdG9z6Xt//ZtzzkiakWVC7s1rcD76/pDIWmfmO2eZM2eGQODK6HSPz86+Jmzu7nU7V3/Ux+DCOH70+MkX321tbT1g2EZMLE/Pz+75HeCzRvbR44cPD7/44os7d27dunWTYWJiYnl5eW1tbWdnZ25h1fjUJfTx/wLj6bOjo9u3v/wSqGfcM7Hn3APz09NzDOsL3U9dTB8fHaXnL47u3Qbqift/vnz16ptX2yT3y0D+3Nz8/Pr6+saeL/yfFUr/2t+fvCdwf+vWN01m4DeZrV/eMVabC+uc+pWVlY3mpy6uj4+G7NvXd+8y6iXumcp/edbZALHfZffszVvcb2xszK5+6iL7+Cgwvn19wqiXxJ67etvbO2DudwxjZQeon0ex35idnd30vf7PAOk3JzfuAvdHRy/+ffu3P/9kIzw2xEPuLS9/ZRqt/TxjvLuwwrhfWFjwRX/g8e1fMzdu3ADun1/YPnzn+OwVU/qSlz8/v0Gy3tlE7jebn6rIPj4KMt+fE/V390uuS8bq1wL36Okxid9srnYCHaB+c7PpO/wDjPQPpzPE/X5WvpJfPftm2SX38+Tlb2ws7AL1u7s++YOL8nlrhrjfvxDPd1HjC5GdaT64tzw9EHtGfdMf6g8qKj+0GPenwP2/nLPdd0++27oluXq22K8T9ws29z75g4lKvdVqnc68ZdzvH/NznUdPDg+tIR7O4ogqf2F2Y4O437S49739QQSnPvPtCZN7OnX8+OEhH95DZGdjd4/P43CdvxCA6d29XZB7on5v1Y/vDx5Sms6o/z4Z+InJ/Y9w5uLZEYV2trbuvDzDKbtplPtp4h5i+VzFd1abm5z7VT/IM2ioRXS9NfI94/InMvcXP7+4jXG9w61fjjnF34DOn5hdXWPUr6Cvt2EzbXT3GPmrq77gDxpKQVXRkXqS++Of9ychpHt4+PjYvulsm/l6EysBg3E/vdlFP39DEPPOKsi9z/1gwRiLKkp0DMX7Ldj7fQznHx29E6jdgwnciTl2NMfkfiPQWUE3X9TxRtenftBQTSiKqmfwOHVCId3Jo5+fiiO2Do7x1uDU7A7z842AsbEOkR3fwA8yyhFF0UNp+sG53z96Ko/VX0I4fxvFugkxXaB8Fof3PvmDi2xdVRQthcfG29c0lfPIddPXENbb3sPjLjh7eIiTeLN+QGdgMRRTlNwQHpbenFBM1z2Ts/oApu836IcBcr+LhwsY0v0bC+vjY6IWZ8Y+kYTDC3su51+umzCmO239mmfcz9Ihkr/r3NhZ9ZN3BwbG0jDT+GU4rNRhLgft/f5T6aZfHgD3tmFfYdyv8+NZwJ79Nhji/x3F9vERcKApSrgBR+16qzVzen5R+uvu3bsvjoV7jiFt50HT/r2wMzc3x48NnMezhnZd4N4X/MGAkWOOXhzMexUD+m/Y4XPM1xNm8GEu58E3zm/b0Qd0cCKP/8Lwzt9Vdh//HVJB5ui12UHV1FutcwztBd5grqZN/juYw70lSPMq437ajuKsbsBMHh4aGNPHo7+n+D7+cxhjYO2zSL3eqrfpbBaDO/e4s9/dunPn1lZTeAoGedOOeDdB8NHkr8KETgcSvHzNf+1R42K/yKy+Xl+0TpcwqHtE2TtP7ty5s/VKfAoj+k3n9wLX+p3dJkOAm/2/o/w+/nM0wmjtUxDZq48750vA/b2HvzLhfXoIazPk4B1M4W86P9Hks9+7MIsPtoCZfT+H55ojG0Inv8aoVyyFz6/QbM5vxwZkb2ydyc/NMe5nhd+rmKHf3ATy4XcH7L4/rXOtkTJhbJ/UmK9fqMqXjN9xLeZDXJjzxPXcOuN+RTyxCeRD6hZfoLPHlb+Pa4tGVFFzBgR1w1M9F5+/sBZlbblt98ba9PS6eKLDMzY3+Z1d4F6yEwbBfebSO5Kl0VJe/rLhwF3ey856XPB65ZXNlHdlDM9r/V/tPneVgmRYm7iuup/IpgGZy1+ZrStKrA3RHTWa6f3M8b0jIv+Jm/vZtZ2deenMLpK/YAX4Okz774pPGVoxFAoVi0n7TPkf7MRXzmdT8Dv0j7L1QK1thiKRSDHWrgkl/gpeQyjWpxZrQtcowqWvRuWS1v5h325Ojdc82jTzVch5ZXysXe65pzoSjUbNReFM9n5RLGsgMH4ffuN8WBKvORVbvI/1kixqIDBaaZjFYjFRPXBaJHBfqFyElcTNSb48pLE2iRfHxoVq5kP4QWcKZrHI2u3+gVx9dpNSPXDeWAYvv8KkXokL7evAeG4J/sszSYgXGPdzQht1ZylN347tgttHpt9CO8c+owTT8gnNab4qlEMP8qYojwVjKjzBFFNwyi5dNqgIiOaC0ZT9ghG4P+LiPu08oEYTwbFKD7OZiPhK9rUxV1skzWFVVXlqCy9GAe9V7J5XgRMmcZ+Aa3GLUvSllJisVtONYCEMxVVjWq5in06oTkH0aEwzF6XSVqJajFc8ERmyuTZ0rLjD/TiUwCy7qg8fM7W2Va42vGqJPWmOu1uE41faeIN5e9+9OnOct83lnZ0dq1yd5gYt0Zidde7YA9svlrymwedNu6LGUhTaxBEHvE7R5YBRjUdFjkOW0MncQ32CQ9YL3sc93m7q7l4ucw9fKx5IN5SxZEpQVD/IvdBsfbnPaEjxiCTC48WwUCRtyupCIvdUWsV5LjOliZfDdimvzD0gYXLpK2C5WG2XAt7ogNI/PLRW4N98dUZbLDWX13YghcfoNhdW+CJ8eTa3y4y/tCFLPqJDiW2mRrFU0THrdykOvwvYN4xGwVVkjXuiPdwzTqzucxXuFWU4Upbv4Nwz0babNiJNYTeIqLDgDHPu9ZBFTV/uGyipIanDtV1lyk1xIXFzL+qLTDTmuhbhcnQF7oXKDZt4YybEf4ccTSzjOeP+4dNfv7PWZ8BOWxNrc/NzsOvK+vocLNKgzTdWVnA21zbxhmj9hSaMWD9hiMFaT7OKXMbfGlJXNam1tXgorlHLB8ep0akucTBgERPro1t0X8K9ym6PB3nTxmXyiXt9jP1Tj+eoxcUxTzZutZLjW3DulZx1Yz/ux/HzQdFXCFQ4HwktGETpU0zefamAEaFySpAX1phC6vVcMM6uRann0bX3c4+VM+P0yjAKeo33v4TLD3GqyKi//YyJ/9mTLYzp8622hP2WaG3WOmy6BOQ7gr/JuN8VX0Zk29xwaTItzYX2R9XhsEySGByqZfLZckMT+idxX8gwtzVZSin4jgRv2f7cq2Ps/kxtXEda1LqkgJH7KMlXqU09sihSZekg0zEFFvdKJC3c1Mt9LQjKLtYQv0cKTolFF2vpWkXHKoSo1Mi9lmWFzZdSY3jFUsnjWDBVa9eS+VJ5iSpSwI+8l/voEuqVzEEU+0ykZrPBvubh4yN+ZUP8hzSZ2/365XdbkLwj7bVF5M+v46i+C5rfVvO77oSeUTL4Vj/mOscSMUwjoFmlAMwxsPawmprkhDwB4t7kEphEn4E6zOXc0488aducFMoQubdc0rgwiQk5zIpulwBhc29R4819JodGNSi1L/q0Sq5BiiE5FXZaAbm37s5PIVNFrGsmpCP1lu0gzVjAXv9e7oeXuE3JRlXrY1RPJTEe8Eb2xb17IPYcneYvL2/i9ooW+Sj6zj5rsDzPpnuPcb8hvW5MdWrJXT+GOv8WsoJ1I3XkeIWBRWzN4GjAzT1/C5fS93PPXoVtFhLtucx9Cd8oNGQaT6jyWZt7Syd7cz9FQxfJ2MO4Gr5n+cEZeL8aw54gcc+FhSo0XrCbh0BqU4OGuDr35LbizyF8Xo/0E/vnk/fuSTkckJK1+/XG/NwOLsybnp/dFNdg7THBX7F+rzILIOdvY1ezyrGY443HtSY50xo0ARZLHFLlNbuLurg3cBzIDfFVuA+gMCVE+ytznzV1uSGx1IlUQRISh3teTk/uSU9LgQFL2cZdY10a+8rcB7DHYc+hQZGgeLjlwCHyB3CPLamOJHk7cD3rgSRss/bM89Le9vLyxF7PaXD6mvy4uyFaAAAJqYbqlFQ86q2K0wI4CsijYipUhCexowwDgS7uA+i+FqlqV+IelYqqCHfI3JOYF+2OZ9TpKmh+1bTOOtzzcZ4X97UiHLgDphBEdT4HJQqZWqSITLm4R0WJvSKLHpCkQLA3IHcfwL0Br9TrSTpgZPRz8v/Yn5x8ceF5qQncN3tObzLyrSmeDigBKR6YR8eHojklsuFOZ8ZIBzZeSVB1VvPgKRBvF/cZFKIg/bgS9xhGcEYXATf3pHScMS/qI9YRK6aocwXuiSsP7pMUvEm4tOqIXVGOUjVVHk0iOzL3SVSNIZCVMla7LsZL8ItY0A/hHlUJ0668cEK7SDAggcNb7Bn3E17cd9hwb53reQPGfbJqwHbNoQpEzTcG8kymLkMqDMrPiRYfdBSxi3v0BCwX4mrco6slGE7iXl2qAQ6m4IV63GVXmX+QhY5rj/049yg86Dn2cB9J0sjeHTBNoo8b9JY3mXt8pxqzD6PScIGaCbrDB3BPdVXygSQKTUI2Rw4u9nvSdW0w7ie2m73nV9hoj58G7tflW5Bw4gGaNNzI1HWuyWqaXU+6a0R8MDmscsI493zSZJxUBG/Iq3EvsCS0B3OhATRwFix0FgqD1gY7gckjNsS9Wba/38N9rF1wvYpQwq9pru2MOIh7+oZR0VBN4jvRIsYk40wvimc+iHu8Apo2SfbXM5LP8CPsttXnWj/ud2FxLh0a604/sIpLtjTJR3hsvAxWFD0otOjkeTjKzAZZJ4f7WIqh0q5T874/ridyfwBsikObnphuTOALOyIOOfA5a/qBuI8btvHu4V5BqQ9Logqo8QAFvqWWtlBD5pD7XOUAKmfiJ2JEGyor2TGjYgPjV+Deqg0Ns1kxUeokEZAa7fWNu/t/eF/ry30Xhvuk9IH7+V35smJRiC3ABtFAOZasEbW7IXEveUic+7Id1yuYplmgGKdmN+/VuMf4oajserhXElN2O4JLSt5BMi4Ui7gP5bMh7sL0ck8BO1f82PI1w8h96n7QQhELRHG9BFaODnk8H/tYTtIhmeCVuVfHygyp9hiaTiWet+Q+2sfevz250bPTmo3m9k1P7gOMelqpFzBgz1UX9zReGic7DZxjS4SSlgpCbYfDKdkLMRRZ7gWMOOOB/4p7VQMKtAIq/XCcv2VUIByUvh6kFra4p2FcVOnlXqWwU8LdghRkpakdK7amWIrIHc/Ptblj4yX36CFBEOr9MV3VBOR4SBtiZklyWLSevomvPrlx48ZbryuA5oObNz25n52bn6PwTge6gesWtOowkIPRJbR/PkgFwD7A53kOaFQsFSZmjXTd3Is28Grcpzx1Pvf1aqkp/HqUz86iKUpUjHw+b2C5CvSgzT3uXMBIT7m5D5awzGH3LJlo79/HvaP8sBzSLANnFcIIHzSPp8bxS3ma2xke65nSBgbOb9x4fexxAdGX+yZsx4JHnTlbBdig0EI0nwU3BjU8uP6sP1cSdtPx4obEQpGjELf9fD0YjwcTqMCEWbmrcY/N2OPrCc1Mw0a8gfSNksDcB+oU9Cabe2vuoRp2cR/P13Di0nRFT7ifj9YtdT/OEHRzb8bjfCYnaCk17CXDUj/CYZ86YlildHOveXCvhk0u6RQs6jN5/2Zm5sYbj/ME5L43tsMMPgT5kbYu6wXT7nwfHOVFRkHvqgmDV4r5dVgSS5+aTutY9aRpoADnXk+UstnRRfSDeTQUcDXudTtgwuHiHk08ufZO4NkBToQI3PPgKv7jiu3wOTw5GSCAkasEkprMAtJRmXuznM2WUiMUe+EmgzzEiJDiQ32YfMkxV5UoUlizq69EcRATjIw0UpZINXh+hBjp4Cj9NTNz0scLZNhl3D/w4t5g1O9gNG9vxzoSQG5zGaSENDzErHVztKDDrBS/iUbNomODrg7WUxzfl+NOgwOuxD3FQk3BDLu5x5bTI9BIVSHFgoMUr8D9qCNZ7pguTbvKyQBkuq3pJ/y+Y4QSDomjqE+sGdYMTgIERetcxz6ErYTxWcGtnHIkiebxGmTQskLfqVoZQL1af/GUcd8vzh8InD24dfOB5+KL+Z2dtSYcbDLu19xbcqDyjqL087IC0VHshDbbGLAR42El1JM4hSrFdqrAkhNovRL3PSFVb+5xlJ3EoOxwzIJqf1vgPrBox/jc3Gdwdj6qS+mmfOLCYQqVCz0qcM/dniLvpKhdhsWhKimVtF1iJysG0zJUNWlXP+ZKwbYbGWNt7osGrMj9qfcJC2dbt2498My/31jbWUNnb2OH9YKey6jxaBaZuMVy4wlbyxPVMbsuAZzmVE14QOK+pEmD1KtwTy0v6WE399gRUe7Jyk5VLZBuBdZE7o265aH1zOORZsoNBcTPmZSnZ2sepFWcyyHuyYpbtFG5HeucjVHKlXNRt2Pzi1YAJ3AJ9/BMuI3DJ1f4qVZvzZz3C/oEOPee++xswp9WgIN51gnmei7b03dWYzsm1bQ1EsqmYlapd2Sn8BlSb3JMl/RngTfjFbhPYbdSY6Kec3FPraxGA1x3Rhw7iqJIpkfgngfbvbi3HEdxXirQxutRk5rXwGwRVRHi+dbGR/QsVxBhmkXmyZs1c1i4mKSBHIVHjIqoWPpyn46A14Geqly8QHuk1Tq/JFn9a8b9lif3zeW1ZcjeNmDz1Y2ey1aqkD3KSuIEj6Sz+ESPkotVD8qpoQIaXZX4lrlPo1xFlVoeykqzJOW0g5LNPcbOUks0qJLdLz7GoyfKVYp/QE8b1axOYN1JLmfWxb2VguSVs7UEl+QZfMrehBTNSrm8OIZ382QFiXuauVbNA5znoXRfpaC0y+VKg15hJ/NRd2JvbC9WxyjBp0Ds9eXeKOIAGXsez4fjF+qt1mm/qV3Au607t7byXlf24A9psf9XJ9bWlns34slbYm5rKLnhCGUMl2FOsUk+iUr+tXsuhx5WNUyHJ9fYtGNlwdCSHdzAwA0JC1MoUpF4bIce0WLUFcHBxqFSosfnhNllmfvRUF/us5Smq4keejlO34gWNB5vGY7RmyTueb4GG/LhOoBFajk1Z/IAlDJct+xGkmfwRnM5nthuDX37cg9DK1B2DRwTCJVkKr9Vv0TlB36BZdme3He3l5eX2f+zE54z/DxfRPDQKjzAIbnDqYgc5bCTa13cpyNca0BTj7izXGHiqye4oWhDskLrjekqehxYRMMszXCjPQADInPP5c4zT5cMgpyxV3F9UbX0gsx93qqQhhPpVXdYq+AUreZqLzt3uT/3EFLR8gEDLarZsNukPaK3Tj2p5Xj8xZ07//S0CV1I6GJX4C8oLntYBR7Lcoozqrk6A6JsFpzaqKZuVdOdu1EJfRj3aiIuWzcv7mMhuKc3yyNgoMQyu+riPslVjtfaDK/5vIO4kG+tx2yTIHMfqBVVgXvmrOScGkaDU2K4uGaazrVYaNw63597qB54CER+TuFfNZZUfcTrfhtPPNZnEjqw86oRWID/pj2ul+KxMIOQJx3DE+7JzvzicDARjqrDsYK4mCYbYnfHgo4KTWlmWFWjMDlo4osEJKYgK8b6FYslzIjS7pmiyBSFR2K5glagJS9Vk/2Ws6uZeYSitpkqh28V7S54EIGHKRiYpGvWENVYSsC1ohQ5z1aZMUOyooXgkF0kfFJImK+FtRirnNVY2WpBy7HaDsfM4JIrEp8fV4JmIhbLJTRtyPF301B904tLCBlgpzAaOJyJk80dDSp63TPKbwGW6vzpeQW57xiQyL3tue/eEKLhsDdOJ3pMTL423hjTx4Yq4iK6TANvFnRSttJQlKm2Yb1ZBNN8ow3n13gq7bUeryE8UV2s1Ii1JBVLHjak6fNGZshVjCr+xjbLuypYovc35GhJNjUUKxaL9UZFsHU9n0weDI0pS1X7lkx5kbXJUrXiGs0AjHRqvFptV6RVfFT98d67aRRDY6s2+Nu6hoqkUmBH/QM7DLAy+7Hnlc72zZsTxjz0gG1/s9X34JPuTgGOFl9ykCqCFxyG0Qbznvuu0kIYjPvDXzwvdRn3N1fgn5s7H7+8Pj4eIPxn0ZzGoaZqhmHmpG/OPqIL3L/zvISbr+Iajge7njf4uC6AATIfOjNDhSMFVcpI9cTxw9tfHnqn8u3R2p2b4jacPq4lwNN3ksrKOR5y1c1Lzf0FLNH0ntxvPrhFeOBtE3xcH8DMuSPkyWokzIfGlwn+o/7cn21x7r1Dvj6uESBUJa0SmaJYSzgylkr2ewiWZh95ctt9aVH/jddlH9cKMIEqJQUc8PnoqFmoeu1Pw/A7bL/mcb4DsV7Clr/D2vUHBJzVqBAswUQUnC1QY/Vou9Yb2zV+hr33ek4f/7K19YVFvW/tBwGQGSHuvgCdIdrQKG9QHamPDB24NvWCRZqTv0unjNV3uDcLxx3f2g8E0pCZJCwbg1TziJEdr8NGV7qut07Pfzj96duaEwg/3p+cPBKWbXSf/vrbw8Mvv8QtuRCHrn04fVxTQMKZGrYdu3ZMUXVMF6iOaDFdV3TYV//8/Pzk++cHF8elbPLR/t1J+CvpRj57/PTds6OHR4e3kXniHzbk+4TV8fEByMM2LE5S2VTUXvGZLA+FtJFoCwF/TuXk5DXDyd27dyef/fjs3tGLoyPYkofw8PDRY+L+oe/oDQrSMC1tp+zpqjThW1ucqpsjnHz8S0rw93Tu4g77uNk2AxvxHd3+9TiQp01YH/ZZvevjGgLWMuvWQK/esxVHptweqdfPT09d7BP9TPSPfn6Hfy/5HSqBQ+8ZPh/XE5C1pRfJ3yu6V3wiMumDxZ/enP8Fdh/ZP9kHvJj88fmjY+7UZ/+Nuv83f+P8QUIeBvQ8ydebe4RhZNIXF9/iMs2nTy+Y45cXef79Nuy6ftS7ysfHdQbmk6q49ecl3BMuzmdmXntsGvLoCGz/i74LOH1cU6SRfMjo77X3Lrxldv+v3mjf8Qtw/V74ft7goRbHrepSsA7VM7HTgvGGcd+7RBf+vNLkpE/9QKKGCf5auxp17XjiQumHVuv0W/fZ431w/PvtzeTjmiMdxB3to5CzeUlyfoUN9v9yz+4/Repfe+/G5+P6ozRmrZS8LGVrDOI8ct/I/s9rGPOf+G7e4CLPEzfEhZFujNZbLdfCjT9OYNR38qbfzkw+BgLjcb4M6KDfHYsjii6t1buYOYdw3+u+GzP5GBDUwricTHf+qI6MfEFVdGHTy4vvkfnT/710HY+PgYDRjuDGE7li22vTV1jNEbSWSycPWvXT1kxr5vx7X99/Fkgv0XLuXHCp4qY0ycReVWmvkVp1xMTZ3fNTX+g/G5R1LUrpmvGl8ZqYqg/bG5kHAaOUqmr1ER3SOkbOe//mnI/BhXEwxv8+1XAimFiqpspp+As+Bm7+EFtsKJqJGT2Kao4s9k3l9jGgKDdCCb7/XjRmavCnuep1vkV0lAYDaix4SRK/jwFGaXwpWBD/PKWiC8dqIqh7eoM+Pg+MVqaKwQKTc4n14XBCC+mLHpn7Pj4rGOlUdUrRIpoG+3AHYVfWpSHZAfTxOSOfKdVqsAF/uTaaSfpu/aDj/wB4sAXxf0YxlAAAAABJRU5ErkJggg==;" vertex="1" parent="1">
          <mxGeometry x="20" y="290" width="307.27" height="60" as="geometry" />
        </mxCell>
        <mxCell id="3QrkFWoZS2jebAiSfXui-7" style="edgeStyle=orthogonalEdgeStyle;rounded=0;orthogonalLoop=1;jettySize=auto;html=1;" edge="1" parent="1" source="3QrkFWoZS2jebAiSfXui-4" target="3QrkFWoZS2jebAiSfXui-6">
          <mxGeometry relative="1" as="geometry" />
        </mxCell>
        <mxCell id="3QrkFWoZS2jebAiSfXui-4" value="Script Python" style="ellipse;whiteSpace=wrap;html=1;" vertex="1" parent="1">
          <mxGeometry x="400" y="280" width="120" height="80" as="geometry" />
        </mxCell>
        <mxCell id="3QrkFWoZS2jebAiSfXui-13" style="edgeStyle=orthogonalEdgeStyle;rounded=0;orthogonalLoop=1;jettySize=auto;html=1;" edge="1" parent="1" source="3QrkFWoZS2jebAiSfXui-6" target="3QrkFWoZS2jebAiSfXui-11">
          <mxGeometry relative="1" as="geometry" />
        </mxCell>
        <mxCell id="3QrkFWoZS2jebAiSfXui-6" value="indicadores_argentina.csv" style="shape=document;whiteSpace=wrap;html=1;boundedLbl=1;" vertex="1" parent="1">
          <mxGeometry x="590" y="280" width="190" height="80" as="geometry" />
        </mxCell>
        <mxCell id="3QrkFWoZS2jebAiSfXui-9" value="GITHUB" style="text;html=1;align=center;verticalAlign=middle;whiteSpace=wrap;rounded=0;" vertex="1" parent="1">
          <mxGeometry x="557" y="250" width="60" height="30" as="geometry" />
        </mxCell>
        <mxCell id="3QrkFWoZS2jebAiSfXui-21" style="edgeStyle=orthogonalEdgeStyle;rounded=0;orthogonalLoop=1;jettySize=auto;html=1;" edge="1" parent="1" source="3QrkFWoZS2jebAiSfXui-11" target="3QrkFWoZS2jebAiSfXui-12">
          <mxGeometry relative="1" as="geometry">
            <Array as="points">
              <mxPoint x="1000" y="320" />
              <mxPoint x="1000" y="263" />
            </Array>
          </mxGeometry>
        </mxCell>
        <mxCell id="3QrkFWoZS2jebAiSfXui-11" value="" style="shape=image;verticalLabelPosition=bottom;labelBackgroundColor=default;verticalAlign=top;aspect=fixed;imageAspect=0;image=https://img.icons8.com/color/512/google-sheets.png;" vertex="1" parent="1">
          <mxGeometry x="850" y="255.5" width="129" height="129" as="geometry" />
        </mxCell>
        <mxCell id="3QrkFWoZS2jebAiSfXui-18" style="edgeStyle=orthogonalEdgeStyle;rounded=0;orthogonalLoop=1;jettySize=auto;html=1;" edge="1" parent="1" source="3QrkFWoZS2jebAiSfXui-12" target="3QrkFWoZS2jebAiSfXui-17">
          <mxGeometry relative="1" as="geometry" />
        </mxCell>
        <mxCell id="3QrkFWoZS2jebAiSfXui-12" value="" style="shape=image;verticalLabelPosition=bottom;labelBackgroundColor=default;verticalAlign=top;aspect=fixed;imageAspect=0;image=https://1000marcas.net/wp-content/uploads/2022/04/Tableau-Logo.png;" vertex="1" parent="1">
          <mxGeometry x="1050" y="225.5" width="132.44" height="74.5" as="geometry" />
        </mxCell>
        <mxCell id="3QrkFWoZS2jebAiSfXui-17" value="" style="shape=image;verticalLabelPosition=bottom;labelBackgroundColor=default;verticalAlign=top;aspect=fixed;imageAspect=0;image=https://miro.medium.com/v2/resize:fit:431/1*nlAqjbhq6cBf2RxOgLh1Kg.png;" vertex="1" parent="1">
          <mxGeometry x="1060.7200000000003" y="349.99999999999994" width="111" height="62.84" as="geometry" />
        </mxCell>
        <mxCell id="3QrkFWoZS2jebAiSfXui-20" value="Visualizacion" style="text;html=1;align=center;verticalAlign=middle;whiteSpace=wrap;rounded=0;" vertex="1" parent="1">
          <mxGeometry x="1086.22" y="210" width="60" height="30" as="geometry" />
        </mxCell>
      </root>
    </mxGraphModel>
  </diagram>
</mxfile>
